<svg xmlns="http://www.w3.org/2000/svg" width="663" height="673" viewBox="0 0 663 673">
<g>
<path d="M 375.00 668.42 C363.85,669.83 323.12,671.15 314.00,670.40 C282.11,667.78 281.67,667.72 265.00,663.85 C247.37,659.75 240.32,657.85 234.50,655.61 C231.20,654.35 226.25,652.52 223.50,651.55 C220.75,650.58 216.02,648.91 213.00,647.84 C205.28,645.11 182.30,633.82 171.00,627.21 C151.60,615.86 133.83,603.05 118.62,589.44 C102.00,574.57 79.92,550.65 71.13,538.00 C55.76,515.89 47.16,501.71 40.18,487.00 C29.43,464.35 24.99,453.17 24.08,446.48 C23.70,443.66 22.42,439.80 21.25,437.90 C20.07,436.00 18.60,432.43 17.99,429.97 C15.49,419.99 14.91,417.30 14.34,413.00 C14.01,410.52 13.41,408.05 13.01,407.50 C8.50,401.31 4.26,330.57 6.95,306.50 C10.28,276.79 12.14,265.96 14.55,262.29 C15.35,261.07 16.00,258.17 16.00,255.86 C16.00,253.54 16.42,250.26 16.93,248.57 C17.45,246.88 18.53,243.02 19.34,240.00 C21.26,232.81 25.55,220.60 28.03,215.26 C29.11,212.93 30.00,210.53 30.00,209.93 C30.00,208.31 46.74,174.45 51.16,167.15 C53.27,163.65 55.00,160.62 55.00,160.41 C55.00,160.19 57.06,156.80 59.58,152.87 C74.27,129.96 107.93,92.12 126.00,78.20 C143.33,64.86 147.63,61.79 159.00,54.63 C178.67,42.26 189.48,36.54 206.50,29.51 C211.45,27.47 216.40,25.42 217.50,24.96 C218.60,24.50 225.12,22.30 232.00,20.06 C238.88,17.83 245.88,15.55 247.57,15.00 C249.26,14.45 252.50,14.00 254.76,14.00 C257.03,14.00 259.11,13.63 259.39,13.17 C259.68,12.71 262.52,11.78 265.70,11.09 C285.77,6.76 285.16,6.85 300.00,5.84 C337.50,3.30 365.32,4.29 388.50,8.99 C394.00,10.10 400.08,11.26 402.00,11.56 C407.14,12.36 419.79,15.56 423.50,17.01 C424.60,17.43 427.75,18.48 430.50,19.34 C437.91,21.65 453.00,26.95 457.00,28.66 C461.87,30.74 485.65,42.56 490.50,45.32 C505.70,53.96 513.33,58.88 521.70,65.43 C524.57,67.67 529.89,71.75 533.54,74.50 C541.37,80.40 546.96,85.42 560.50,98.72 C588.25,125.98 605.25,149.56 623.04,185.50 C644.49,228.81 654.19,265.07 658.09,316.50 C659.95,341.02 657.19,380.45 651.97,404.00 C645.93,431.25 642.26,443.99 635.83,460.00 C634.17,464.12 631.91,469.75 630.80,472.50 C624.63,487.81 610.53,513.17 599.74,528.34 C584.06,550.40 574.09,562.08 556.96,578.50 C545.43,589.55 540.59,593.75 524.85,606.34 C497.78,628.00 444.73,653.61 411.50,661.07 C406.55,662.19 398.90,663.97 394.50,665.03 C390.10,666.09 381.33,667.62 375.00,668.42 ZM 317.50 522.60 C325.57,524.22 328.34,524.21 336.12,522.56 C351.10,519.39 362.07,511.33 382.26,488.67 C389.03,481.07 397.84,472.25 401.83,469.07 C410.51,462.15 427.73,453.45 441.50,449.04 C470.62,439.70 480.81,434.11 491.30,421.75 C499.33,412.28 502.96,401.90 502.99,388.30 C503.01,377.94 501.41,371.68 496.18,361.68 C492.58,354.78 489.83,351.19 483.52,345.14 C470.14,332.29 459.17,327.42 432.14,322.34 C409.05,318.00 399.15,314.86 378.95,305.48 C354.51,294.12 345.30,291.91 331.26,294.03 C306.81,297.72 287.09,315.32 281.33,338.61 C279.96,344.14 279.59,350.95 279.43,373.00 C279.22,401.94 279.36,400.68 272.97,433.50 C270.25,447.49 269.91,451.01 270.30,461.50 C270.66,471.03 271.28,474.99 273.31,480.75 C276.43,489.54 281.06,498.40 285.12,503.33 C292.37,512.13 306.17,520.34 317.50,522.60 ZM 311.32 280.15 C315.21,281.52 318.74,281.90 325.50,281.67 C333.26,281.41 335.33,280.94 340.50,278.27 C350.93,272.88 359.45,262.29 363.77,249.33 C366.04,242.53 366.38,239.85 366.36,229.00 C366.31,205.06 359.02,186.17 343.63,170.16 C329.39,155.33 312.45,150.03 295.42,155.09 C288.34,157.19 286.90,158.07 280.95,163.96 C270.76,174.04 266.48,184.48 265.36,202.00 C263.16,236.27 283.13,270.23 311.32,280.15 ZM 228.33 338.54 C236.09,340.73 248.39,339.88 255.37,336.69 C261.93,333.68 270.14,326.32 273.70,320.25 C281.86,306.32 282.06,286.87 274.24,268.25 C270.11,258.41 264.73,250.78 255.00,240.93 C241.47,227.24 227.20,220.22 210.94,219.25 C192.21,218.14 177.21,227.37 170.90,243.89 C168.20,250.93 167.21,266.43 168.97,274.13 C172.95,291.63 182.33,307.68 195.93,320.28 C206.55,330.11 214.68,334.69 228.33,338.54 ZM 215.76 443.97 C235.79,447.34 255.08,438.92 263.28,423.23 C276.67,397.63 256.37,360.32 221.82,346.99 C212.01,343.21 205.86,342.00 196.41,342.00 C166.12,342.00 147.73,361.91 153.34,388.63 C158.85,414.81 186.11,438.97 215.76,443.97 ZM 409.44 307.13 C411.12,307.56 415.53,307.74 419.24,307.52 C437.05,306.46 453.38,290.08 460.18,266.45 C463.16,256.12 463.44,235.13 460.73,225.00 C457.15,211.60 450.18,200.80 440.00,192.86 C434.06,188.23 428.12,186.70 417.84,187.16 C407.59,187.62 402.20,190.06 393.54,198.15 C386.22,205.00 381.70,212.27 377.95,223.24 C368.82,249.94 373.85,278.40 390.73,295.53 C395.74,300.61 403.95,305.70 409.44,307.13 Z" fill="rgb(39,178,150)"/>
<path d="M 6.51 347.86 C7.14,364.86 8.44,382.55 10.02,394.30 C9.43,390.90 8.75,387.21 8.20,384.50 C7.25,379.75 6.67,364.48 6.51,347.86 ZM 18.59 431.97 C19.32,434.10 20.36,436.47 21.25,437.90 C22.42,439.80 23.70,443.66 24.08,446.48 C24.59,450.22 26.20,455.36 29.40,463.13 C25.44,453.75 21.45,442.18 18.59,431.97 ZM 348.42 4.66 C334.18,4.20 318.24,4.60 300.00,5.84 C295.63,6.14 292.59,6.34 289.98,6.59 C299.82,5.26 309.42,4.72 324.50,4.35 C332.09,4.17 340.29,4.29 348.42,4.66 ZM 16.31 251.71 C16.12,253.11 16.00,254.62 16.00,255.86 C16.00,258.17 15.35,261.07 14.55,262.29 C12.25,265.79 10.46,275.79 7.41,302.45 C7.51,301.16 7.62,300.00 7.74,299.00 C10.58,274.94 11.01,272.42 15.04,256.75 C15.39,255.39 15.87,253.46 16.31,251.71 ZM 274.34 9.23 C271.95,9.74 269.13,10.35 265.70,11.09 C262.52,11.78 259.68,12.71 259.39,13.17 C259.11,13.63 257.03,14.00 254.76,14.00 C253.43,14.00 251.77,14.16 250.27,14.40 C250.90,14.22 251.49,14.06 252.00,13.92 C253.93,13.39 257.98,12.47 261.00,11.88 C264.02,11.30 268.30,10.45 270.50,10.00 C271.82,9.73 273.10,9.47 274.34,9.23 ZM 11.42 402.71 C11.94,405.10 12.47,406.76 13.01,407.50 C13.41,408.05 14.01,410.52 14.34,413.00 C14.62,415.15 14.91,416.89 15.44,419.34 C14.94,417.37 14.28,414.97 13.71,413.00 C13.01,410.59 12.09,406.40 11.42,402.71 ZM 245.08 15.81 C242.04,16.80 236.98,18.44 232.00,20.06 C225.12,22.30 218.60,24.50 217.50,24.96 C216.40,25.42 211.45,27.47 206.50,29.51 C211.45,27.47 216.40,25.42 217.50,24.95 C220.30,23.76 240.76,16.98 245.00,15.83 ZM 22.18 230.72 C24.15,224.63 26.19,219.23 28.03,215.26 C26.45,218.66 24.15,224.83 22.18,230.72 ZM 34.17 474.09 C35.58,477.20 37.16,480.60 38.91,484.33 C36.83,479.93 35.56,477.20 34.17,474.09 Z" fill="rgb(87,175,158)"/>
<path d="M 0.00 336.50 L 0.00 0.00 L 331.50 0.00 L 663.00 0.00 L 663.00 336.50 L 663.00 673.00 L 331.50 673.00 L 0.00 673.00 L 0.00 336.50 ZM 375.00 668.42 C381.33,667.62 390.10,666.09 394.50,665.03 C398.90,663.97 406.55,662.19 411.50,661.07 C444.73,653.61 497.78,628.00 524.85,606.34 C540.59,593.75 545.43,589.55 556.96,578.50 C574.09,562.08 584.06,550.40 599.74,528.34 C610.53,513.17 624.63,487.81 630.80,472.50 C631.91,469.75 634.17,464.12 635.83,460.00 C642.26,443.99 645.93,431.25 651.97,404.00 C657.19,380.45 659.95,341.02 658.09,316.50 C654.19,265.07 644.49,228.81 623.04,185.50 C605.25,149.56 588.25,125.98 560.50,98.72 C546.96,85.42 541.37,80.40 533.54,74.50 C529.89,71.75 524.57,67.67 521.70,65.43 C513.33,58.88 505.70,53.96 490.50,45.32 C485.65,42.56 461.87,30.74 457.00,28.66 C453.00,26.95 437.91,21.65 430.50,19.34 C427.75,18.48 424.60,17.43 423.50,17.01 C419.79,15.56 407.14,12.36 402.00,11.56 C400.08,11.26 394.00,10.10 388.50,8.99 C372.51,5.75 346.05,3.83 324.50,4.35 C300.25,4.94 290.17,5.99 270.50,10.00 C268.30,10.45 264.02,11.30 261.00,11.88 C257.98,12.47 253.93,13.39 252.00,13.92 C250.07,14.45 246.93,15.31 245.00,15.83 C240.76,16.98 220.30,23.76 217.50,24.95 C216.40,25.42 211.45,27.47 206.50,29.51 C189.48,36.54 178.67,42.26 159.00,54.63 C147.63,61.79 143.33,64.86 126.00,78.20 C107.93,92.12 74.27,129.96 59.58,152.87 C57.06,156.80 55.00,160.19 55.00,160.41 C55.00,160.62 53.27,163.65 51.16,167.15 C46.74,174.45 30.00,208.31 30.00,209.93 C30.00,210.53 29.11,212.93 28.03,215.26 C24.44,223.00 20.12,236.22 16.92,249.25 C16.41,251.31 15.57,254.69 15.04,256.75 C11.01,272.42 10.58,274.94 7.74,299.00 C5.83,315.20 6.15,374.26 8.20,384.50 C9.08,388.90 10.33,395.88 10.96,400.00 C11.59,404.12 12.83,409.98 13.71,413.00 C14.59,416.02 15.66,420.08 16.08,422.00 C18.77,434.33 24.46,451.72 29.98,464.50 C34.43,474.79 35.32,476.75 40.18,487.00 C47.15,501.70 55.76,515.88 71.13,538.00 C79.92,550.65 102.00,574.57 118.62,589.44 C133.83,603.05 151.60,615.86 171.00,627.21 C182.30,633.82 205.28,645.11 213.00,647.84 C216.02,648.91 220.75,650.58 223.50,651.55 C226.25,652.52 231.20,654.35 234.50,655.61 C240.32,657.85 247.37,659.75 265.00,663.85 C281.67,667.72 282.11,667.78 314.00,670.40 C323.12,671.15 363.85,669.83 375.00,668.42 ZM 317.50 522.60 C306.17,520.34 292.37,512.13 285.12,503.33 C281.06,498.40 276.43,489.54 273.31,480.75 C271.28,474.99 270.66,471.03 270.30,461.50 C269.91,451.01 270.25,447.49 272.97,433.50 C279.36,400.68 279.22,401.94 279.43,373.00 C279.59,350.95 279.96,344.14 281.33,338.61 C287.09,315.32 306.81,297.72 331.26,294.03 C345.30,291.91 354.51,294.12 378.95,305.48 C399.15,314.86 409.05,318.00 432.14,322.34 C459.17,327.42 470.14,332.29 483.52,345.14 C489.83,351.19 492.58,354.78 496.18,361.68 C501.41,371.68 503.01,377.94 502.99,388.30 C502.96,401.90 499.33,412.28 491.30,421.75 C480.81,434.11 470.62,439.70 441.50,449.04 C427.73,453.45 410.51,462.15 401.83,469.07 C397.84,472.25 389.03,481.07 382.26,488.67 C362.07,511.33 351.10,519.39 336.12,522.56 C328.34,524.21 325.57,524.22 317.50,522.60 ZM 215.76 443.97 C186.11,438.97 158.85,414.81 153.34,388.63 C147.73,361.91 166.12,342.00 196.41,342.00 C205.86,342.00 212.01,343.21 221.82,346.99 C256.37,360.32 276.67,397.63 263.28,423.23 C255.08,438.92 235.79,447.34 215.76,443.97 ZM 228.33 338.54 C214.68,334.69 206.55,330.11 195.93,320.28 C182.33,307.68 172.95,291.63 168.97,274.13 C167.21,266.43 168.20,250.93 170.90,243.89 C177.21,227.37 192.21,218.14 210.94,219.25 C227.20,220.22 241.47,227.24 255.00,240.93 C264.73,250.78 270.11,258.41 274.24,268.25 C282.06,286.87 281.86,306.32 273.70,320.25 C270.14,326.32 261.93,333.68 255.37,336.69 C248.39,339.88 236.09,340.73 228.33,338.54 ZM 409.44 307.13 C403.95,305.70 395.74,300.61 390.73,295.53 C373.85,278.40 368.82,249.94 377.95,223.24 C381.70,212.27 386.22,205.00 393.54,198.15 C402.20,190.06 407.59,187.62 417.84,187.16 C428.12,186.70 434.06,188.23 440.00,192.86 C450.18,200.80 457.15,211.60 460.73,225.00 C463.44,235.13 463.16,256.12 460.18,266.45 C453.38,290.08 437.05,306.46 419.24,307.52 C415.53,307.74 411.12,307.56 409.44,307.13 ZM 311.32 280.15 C283.13,270.23 263.16,236.27 265.36,202.00 C266.48,184.48 270.76,174.04 280.95,163.96 C286.90,158.07 288.34,157.19 295.42,155.09 C312.45,150.03 329.39,155.33 343.63,170.16 C359.02,186.17 366.31,205.06 366.36,229.00 C366.38,239.85 366.04,242.53 363.77,249.33 C359.45,262.29 350.93,272.88 340.50,278.27 C335.33,280.94 333.26,281.41 325.50,281.67 C318.74,281.90 315.21,281.52 311.32,280.15 Z" fill="rgb(252,254,253)"/>
</g>
</svg>