<?xml version="1.0" encoding="UTF-8" standalone="no"?><!DOCTYPE svg PUBLIC "-//W3C//DTD SVG 1.1//EN" "http://www.w3.org/Graphics/SVG/1.1/DTD/svg11.dtd"><svg xmlns="http://www.w3.org/2000/svg" xmlns:xlink="http://www.w3.org/1999/xlink" version="1.1" width="663" height="673" viewBox="0 0 663 673">
<desc>Created with SVGMaker Editor 2.2.3</desc>
<defs>
</defs>
<path transform="translate(0,0)" style="fill: rgb(87,175,158)" stroke-linecap="round" d="M 6.51 347.86 C 7.14 364.86 8.44 382.55 10.02 394.3 C 9.43 390.9 8.75 387.21 8.2 384.5 C 7.25 379.75 6.67 364.48 6.51 347.86 Z M 18.59 431.97 C 19.32 434.1 20.36 436.47 21.25 437.9 C 22.42 439.8 23.7 443.66 24.08 446.48 C 24.59 450.22 26.2 455.36 29.4 463.13 C 25.44 453.75 21.45 442.18 18.59 431.97 Z M 348.42 4.66 C 334.18 4.2 318.24 4.6 300 5.84 C 295.63 6.14 292.59 6.34 289.98 6.59 C 299.82 5.26 309.42 4.72 324.5 4.35 C 332.09 4.17 340.29 4.29 348.42 4.66 Z M 16.31 251.71 C 16.12 253.11 16 254.62 16 255.86 C 16 258.17 15.35 261.07 14.55 262.29 C 12.25 265.79 10.46 275.79 7.41 302.45 C 7.51 301.16 7.62 300 7.74 299 C 10.58 274.94 11.01 272.42 15.04 256.75 C 15.39 255.39 15.87 253.46 16.31 251.71 Z M 274.34 9.23 C 271.95 9.74 269.13 10.35 265.7 11.09 C 262.52 11.78 259.68 12.71 259.39 13.17 C 259.11 13.63 257.03 14 254.76 14 C 253.43 14 251.77 14.16 250.27 14.4 C 250.9 14.22 251.49 14.06 252 13.92 C 253.93 13.39 257.98 12.47 261 11.88 C 264.02 11.3 268.3 10.45 270.5 10 C 271.82 9.73 273.1 9.47 274.34 9.23 Z M 11.42 402.71 C 11.94 405.1 12.47 406.76 13.01 407.5 C 13.41 408.05 14.01 410.52 14.34 413 C 14.62 415.15 14.91 416.89 15.44 419.34 C 14.94 417.37 14.28 414.97 13.71 413 C 13.01 410.59 12.09 406.4 11.42 402.71 Z M 245.08 15.81 C 242.04 16.8 236.98 18.44 232 20.06 C 225.12 22.3 218.6 24.5 217.5 24.96 C 216.4 25.42 211.45 27.47 206.5 29.51 C 211.45 27.47 216.4 25.42 217.5 24.95 C 220.3 23.76 240.76 16.98 245 15.83 Z M 22.18 230.72 C 24.15 224.63 26.19 219.23 28.03 215.26 C 26.45 218.66 24.15 224.83 22.18 230.72 Z M 34.17 474.09 C 35.58 477.2 37.16 480.6 38.91 484.33 C 36.83 479.93 35.56 477.2 34.17 474.09 Z"/>
<g transform="matrix(1 0 0 1 331.6 336.57)">
<g transform="translate(0,0)" style="">
<circle transform="translate(0,0)" style="stroke-width: 0; fill: rgb(255,255,255)" cx="-0.704" cy="-11.704" r="214.296" vector-effect="non-scaling-stroke"/>
<path transform="translate(0,0)" style="fill: rgb(39,178,150); fill-rule: evenodd" stroke-linecap="round" d="M61.9294 327.4825C57.5294 328.5425 48.7594 330.0725 42.4294 330.8725 31.2794 332.2825-9.4506 333.6025-18.5706 332.8525-50.4606 330.2325-50.9006 330.1725-67.5706 326.3025-85.2006 322.2025-92.2506 320.3025-98.0706 318.0625-101.3706 316.8025-106.3206 314.9725-109.0706 314.0025-111.8206 313.0325-116.5506 311.3625-119.5706 310.2925-127.2906 307.5625-150.2706 296.2725-161.5706 289.6625-180.9706 278.3125-198.7406 265.5025-213.9506 251.8925-230.5706 237.0225-252.6506 213.1025-261.4406 200.4525-270.4359 187.5065-277.1158 177.2805-282.5066 168.0785-286.3244 161.5585-289.4967 155.5515-292.3906 149.4525-292.5686 149.0775-292.7413 148.7125-292.909 148.3585-295.041 143.8545-296.9169 139.8145-298.5597 136.1815-299.6596 133.7155-300.854 130.9685-302.5906 126.9525-302.693 126.7155-302.7955 126.4765-302.898 126.2365-306.2793 118.1035-307.9677 112.7765-308.4906 108.9325-308.8706 106.1125-310.1506 102.2525-311.3206 100.3525-312.2025 98.9325-313.2464 96.5795-313.9722 94.4545-314.9651 90.9065-315.8208 87.5225-316.4906 84.4525-316.6369 83.7835-316.8622 82.8545-317.1308 81.8005-317.6586 79.3465-317.9459 77.6005-318.2306 75.4525-318.5606 72.9725-319.1606 70.5025-319.5606 69.9525-320.1029 69.2085-320.6413 67.5305-321.1642 65.1135-321.3324 64.1805-321.4839 63.2815-321.6106 62.4525-321.8521 60.8725-322.1848 58.8725-322.5529 56.7585-324.1292 45.0205-325.4297 27.3335-326.0567 10.3415-326.2176-6.7315-325.9325-25.2355-325.1471-35.2305-322.1092-61.7895-320.3139-71.7655-318.0206-75.2575-317.2206-76.4775-316.5706-79.3775-316.5706-81.6875-316.5706-82.9255-316.4509-84.4375-316.2618-85.8355-316.0366-86.7395-315.8244-87.5955-315.6506-88.2975-314.0577-94.7835-312.1873-101.3165-310.2675-107.1975-308.349-112.9195-306.1298-118.8425-304.5878-122.1855-304.572-122.2195-304.5563-122.2535-304.5406-122.2875-303.4606-124.6175-302.5706-127.0175-302.5706-127.6175-302.5706-129.2375-285.8306-163.0975-281.4106-170.3975-279.3006-173.8975-277.5706-176.9275-277.5706-177.1375-277.5706-177.3575-275.5106-180.7475-272.9906-184.6775-258.3006-207.5875-224.6406-245.4275-206.5706-259.3475-189.2406-272.6875-184.9406-275.7575-173.5706-282.9175-153.9006-295.2875-143.0906-301.0075-126.0706-308.0375-126.0626-308.041-126.0536-308.0445-126.0456-308.048-121.1036-310.0845-116.1686-312.1283-115.0706-312.5875-113.9706-313.0475-107.4506-315.2475-100.5706-317.4875-95.5646-319.1102-90.4946-320.7593-87.4536-321.7491-86.0386-322.1307-84.0296-322.6793-82.3116-323.1499-80.8166-323.391-79.1436-323.5475-77.8106-323.5475-75.5406-323.5475-73.4606-323.9175-73.1806-324.3775-72.8906-324.8375-70.0506-325.7675-66.8706-326.4575-63.3856-327.2093-60.5246-327.8278-58.0976-328.342-52.4206-329.453-47.4946-330.3001-42.6276-330.9563-40.0046-331.2058-36.9646-331.4084-32.5706-331.7075-14.3326-332.9428 1.6154-333.3432 15.8534-332.8879 30.8184-332.2014 45.5714-330.6564 55.9294-328.5575 61.4294-327.4475 67.5094-326.2875 69.4294-325.9875 74.5694-325.1875 87.2194-321.9875 90.9294-320.5375 92.0294-320.1175 95.1794-319.0675 97.9294-318.2075 105.3394-315.8975 120.4294-310.5975 124.4294-308.8875 129.2994-306.8075 153.0794-294.9875 157.9294-292.2275 173.1294-283.5875 180.7594-278.6675 189.1294-272.1175 191.9994-269.8775 197.3194-265.7975 200.9694-263.0475 208.7994-257.1475 214.3894-252.1275 227.9294-238.8275 255.6794-211.5675 272.6794-187.9875 290.4694-152.0475 311.9194-108.7375 321.6194-72.4775 325.5194-21.0475 327.3794 3.4725 324.6194 42.9025 319.3994 66.4525 313.3594 93.7025 309.6894 106.4425 303.2594 122.4525 301.5994 126.5725 299.3394 132.2025 298.2294 134.9525 292.0594 150.2625 277.9594 175.6225 267.1694 190.7925 251.4894 212.8525 241.5194 224.5325 224.3894 240.9525 212.8594 252.0025 208.0194 256.2025 192.2794 268.7925 165.2094 290.4525 112.1594 316.0625 78.9294 323.5225 73.9794 324.6425 66.3294 326.4225 61.9294 327.4825ZM-7.0706-55.8775C-13.8306-55.6475-17.3606-56.0275-21.2506-57.3975-49.4406-67.3175-69.4106-101.2775-67.2106-135.5475-66.0906-153.0675-61.8106-163.5075-51.6206-173.5875-45.6706-179.4775-44.2306-180.3575-37.1506-182.4575-20.1206-187.5175-3.1806-182.2175 11.0594-167.3875 26.4494-151.3775 33.7394-132.4875 33.7894-108.5475 33.8094-97.6975 33.4694-95.0175 31.1994-88.2175 26.8794-75.2575 18.3594-64.6675 7.9294-59.2775 2.7594-56.6075 0.6894-56.1375-7.0706-55.8775ZM86.6694-30.0275C82.9594-29.8075 78.5494-29.9875 76.8694-30.4175 71.3794-31.8475 63.1694-36.9375 58.1594-42.0175 41.2794-59.1475 36.2494-87.6075 45.3794-114.3075 49.1294-125.2775 53.6494-132.5475 60.9694-139.3975 69.6294-147.4875 75.0194-149.9275 85.2694-150.3875 95.5494-150.8475 101.4894-149.3175 107.4294-144.6875 117.6094-136.7475 124.5794-125.9475 128.1594-112.5475 130.8694-102.4175 130.5894-81.4275 127.6094-71.0975 120.8094-47.4675 104.4794-31.0875 86.6694-30.0275ZM-77.2006-0.8575C-84.1806 2.3325-96.4806 3.1825-104.2406 0.9925-117.8906-2.8575-126.0206-7.4375-136.6406-17.2675-150.2406-29.8675-159.6206-45.9175-163.6006-63.4175-165.3606-71.1175-164.3706-86.6175-161.6706-93.6575-155.3606-110.1775-140.3606-119.4075-121.6306-118.2975-105.3706-117.3275-91.1006-110.3075-77.5706-96.6175-67.8406-86.7675-62.4606-79.1375-58.3306-69.2975-50.5106-50.6775-50.7106-31.2275-58.8706-17.2975-62.4306-11.2275-70.6406-3.8675-77.2006-0.8575ZM3.5494 185.0125C-4.2306 186.6625-7.0006 186.6725-15.0706 185.0525-26.4006 182.7925-40.2006 174.5825-47.4506 165.7825-51.5106 160.8525-56.1406 151.9925-59.2606 143.2025-61.2906 137.4425-61.9106 133.4825-62.2706 123.9525-62.6606 113.4625-62.3206 109.9425-59.6006 95.9525-53.2106 63.1325-53.3506 64.3925-53.1406 35.4525-52.9806 13.4025-52.6106 6.5925-51.2406 1.0625-45.4806-22.2275-25.7606-39.8275-1.3106-43.5175 12.7294-45.6375 21.9394-43.4275 46.3794-32.0675 66.5794-22.6875 76.4794-19.5475 99.5694-15.2075 126.5994-10.1275 137.5694-5.2575 150.9494 7.5925 157.2594 13.6425 160.0094 17.2325 163.6094 24.1325 168.8394 34.1325 170.4394 40.3925 170.4194 50.7525 170.3894 64.3525 166.7594 74.7325 158.7294 84.2025 148.2394 96.5625 138.0494 102.1525 108.9294 111.4925 95.1594 115.9025 77.9394 124.6025 69.2594 131.5225 65.2694 134.7025 56.4594 143.5225 49.6894 151.1225 29.4994 173.7825 18.5294 181.8425 3.5494 185.0125ZM-69.2906 85.6825C-77.4906 101.3725-96.7806 109.7925-116.8106 106.4225-146.4606 101.4225-173.7206 77.2625-179.2306 51.0825-184.8406 24.3625-166.4506 4.4525-136.1606 4.4525-126.7106 4.4525-120.5606 5.6625-110.7506 9.4425-76.2006 22.7725-55.9006 60.0825-69.2906 85.6825Z"/>
</g>
</g>
</svg>